<?xml version="1.0" encoding="UTF-8"?>
<svg xmlns="http://www.w3.org/2000/svg" viewBox="0 0 154.15 175.16">
  <defs>
    <style>
      .cls-1 {
        fill: #016c39;
      }

      .cls-1, .cls-2, .cls-3, .cls-4, .cls-5, .cls-6, .cls-7, .cls-8, .cls-9, .cls-10 {
        stroke-width: 0px;
      }

      .cls-2 {
        fill: #b9cd24;
      }

      .cls-3 {
        fill: #012755;
      }

      .cls-4 {
        fill: #00a6d2;
      }

      .cls-5 {
        fill: #006337;
      }

      .cls-6 {
        fill: #085d36;
      }

      .cls-7 {
        fill: #004a2f;
      }

      .cls-8 {
        fill: #63a538;
      }

      .cls-9 {
        fill: #88bc34;
      }

      .cls-10 {
        fill: #8fbc33;
      }
    </style>
  </defs>
  <g id="Verde_Paz" data-name="Verde Paz">
    <g>
      <path class="cls-6" d="M130.67,95.84c.59,0,.94,0,1.29,0,2.23,0,4.46-.03,6.69,0,1.45.02,2.22.82,2.23,2.2.01,1.46-.74,2.21-2.25,2.27-.16,0-.33,0-.49,0-4.85.01-9.7.03-14.55.04-1.54,0-2.06-.36-2.53-1.92-.47-1.57-.88-3.16-1.25-4.76-.18-.77-.47-1.1-1.25-1.08-1.87.06-3.74.06-5.6.02-.69-.01-.98.25-1.15.95-.41,1.73-.87,3.45-1.37,5.15-.37,1.24-1.05,1.73-2.08,1.71-1.32-.03-2.26-1.16-1.91-2.52.68-2.63,1.46-5.23,2.24-7.83,1.44-4.77,2.89-9.53,4.36-14.29.59-1.92,1.45-2.63,2.91-2.57.96.04,1.72.47,2.15,1.4.35.79.67,1.6.92,2.43,1.86,6.1,3.69,12.2,5.54,18.3.17.55.38,1.09.65,1.84,3.51-6.6,6.92-13,10.42-19.59-1.68,0-3.15,0-4.61,0-.66,0-1.31.04-1.96-.02-1.12-.1-1.73-.82-1.76-1.99-.03-1.25.61-2.22,1.69-2.33,1.24-.12,2.49-.12,3.73-.13,2.03-.02,4.06-.03,6.1-.02,1.92.01,2.85,1.53,2.05,3.41-.51,1.21-1.18,2.34-1.8,3.5-2.61,4.86-5.23,9.72-7.85,14.58-.17.32-.31.67-.57,1.24ZM118.16,88.27c-.75-2.64-1.46-5.13-2.17-7.61-.09.01-.19.03-.28.04-.69,2.48-1.39,4.97-2.11,7.57h4.56Z"/>
      <path class="cls-6" d="M53.22,86.74c0-3.78-.01-7.57,0-11.35,0-1.42.56-2.15,1.84-2.25,3.7-.27,7.28.11,10.39,2.59,4.37,3.49,5.88,8.24,4.93,13.81-.95,5.57-4.21,9.08-9.34,10.41-1.76.46-3.63.52-5.45.6-1.72.07-2.36-.71-2.37-2.56-.02-3.75,0-7.5,0-11.25,0,0,0,0,0,0ZM57.55,77.62v18.25c3.19-.02,5.83-1.06,7.47-4.04,1.91-3.46,1.94-7.05-.13-10.43-1.67-2.73-4.26-3.75-7.35-3.79Z"/>
      <path class="cls-6" d="M45.86,90.84c1.26,1.78,2.48,3.51,3.7,5.24.28.39.57.77.81,1.19.62,1.08.57,1.96-.14,2.67-.76.76-1.96.84-2.79.08-.52-.47-.95-1.06-1.35-1.66-1.27-1.91-2.5-3.86-3.76-5.79-.26-.39-.54-.77-1.01-1.1,0,.89,0,1.77,0,2.66,0,1.37.02,2.74-.02,4.1-.04,1.4-.87,2.25-2.09,2.26-1.24,0-2.02-.82-2.08-2.27-.04-.91,0-1.82,0-2.73-.02-6.59-.03-13.18-.05-19.77,0-2.14.42-2.64,2.41-2.61,1.63.02,3.3-.03,4.89.29,3.72.76,6.22,3.74,6.62,7.59.44,4.18-1.33,7.75-4.73,9.54-.09.05-.16.11-.42.3ZM41.3,77.75c0,2.8,0,5.56.02,8.32,0,.2.21.53.38.59,1.89.59,4.23-.76,4.95-2.81,1.25-3.57-1.39-6.69-5.35-6.1Z"/>
      <path class="cls-6" d="M14.2,90.35c.94-3.46,1.89-6.92,2.83-10.37.45-1.65.86-3.31,1.35-4.94.45-1.5.98-1.9,2.45-1.91,4-.02,7.99-.02,11.99,0,1.52,0,2.15.54,2.32,1.84.2,1.46-.54,2.52-1.91,2.54-3.34.06-6.68.09-10.02.04-.89-.01-1.26.33-1.5,1.2-1.72,6.25-3.49,12.48-5.24,18.72-.12.44-.23.88-.37,1.31-.36,1.07-1.08,1.63-2.06,1.62-1.03-.01-1.65-.61-1.94-1.62-.72-2.55-1.38-5.11-2.11-7.66-1.39-4.86-2.82-9.7-4.23-14.55-.07-.23-.14-.47-.2-.7-.35-1.37-.11-2.17.78-2.61,1.03-.5,2.38-.13,2.94.92.35.66.59,1.41.79,2.14,1.24,4.46,2.46,8.94,3.69,13.4.06.22.15.43.22.64.07,0,.14-.01.21-.02Z"/>
      <path class="cls-6" d="M76.94,84.52c1.68,0,3.25-.02,4.81,0,1.3.03,1.99.7,2.14,1.97.18,1.55-.58,2.49-2.04,2.5-1.38.02-2.75-.02-4.13.03-.26.01-.73.33-.74.52-.05,2.06-.03,4.12-.03,6.26.54.03.96.07,1.37.08,2.1,0,4.2-.01,6.29.02,1.33.02,2.14.87,2.16,2.18.02,1.3-.8,2.21-2.11,2.22-3.44.03-6.88.02-10.32.03-.95,0-1.46-.54-1.58-1.5-.06-.48-.06-.98-.06-1.47,0-7.19-.02-14.37-.02-21.56,0-2.11.52-2.69,2.5-2.7,3.15-.01,6.29-.01,9.44,0,1.35,0,2.06.66,2.19,1.89.17,1.53-.6,2.54-2.04,2.56-2.23.04-4.46.05-6.69-.01-.88-.02-1.21.23-1.17,1.22.07,1.85.02,3.71.02,5.76Z"/>
      <path class="cls-6" d="M90.21,86.72c0-3.75,0-7.5,0-11.25,0-1.84.43-2.36,2.12-2.37,1.8-.01,3.61-.06,5.4.16,4.11.51,7.19,4.18,7.26,8.44.07,4.39-3.02,8.32-7.1,9.01-.71.12-1.43.16-2.15.2-1.38.08-1.4-.32-1.4,1.58,0,1.93-.01,3.86,0,5.78,0,.84-.31,1.49-1,1.92-1.44.9-2.96.08-3.04-1.69-.07-1.64-.05-3.29-.05-4.94,0-2.28,0-4.56,0-6.84h-.03ZM94.4,86.52c1.34-.16,2.56-.17,3.71-.49,1.66-.46,2.8-2.35,2.79-4.26-.01-1.83-1.12-3.42-2.9-3.88-.97-.25-2.01-.24-3.01-.25-.19,0-.54.45-.55.71-.06,1.26-.03,2.52-.03,3.78,0,1.39,0,2.78,0,4.39Z"/>
      <path class="cls-6" d="M26.75,88.87c0,2.29.01,4.32,0,6.35,0,.75.45.72.93.72,1.96,0,3.93,0,5.89.02,1.42.01,2.1.71,2.13,2.13.02,1.38-.71,2.24-2.05,2.25-3.05.03-6.09.02-9.14-.01-1.26-.01-1.83-.62-1.84-1.92-.04-3.82-.07-7.64-.05-11.45,0-1.99.57-2.52,2.45-2.53,1.83,0,3.67-.01,5.5.02,1.32.02,2.1.86,2.11,2.21,0,1.31-.79,2.18-2.11,2.22-1.23.04-2.47,0-3.81,0Z"/>
    </g>
  </g>
  <g id="Capa_2" data-name="Capa 2">
    <g id="Top_Der" data-name="Top Der">
      <path id="P1" class="cls-9" d="M94.46,60.06c-1.29-11.31.67-19.43,2.8-24.87,5.1-12.99,14.59-19.27,12.21-27.84-.08-.27-1.5-5.12-5.52-6.78-6.23-2.57-15.25,3.94-19.64,10.6-8.04,12.2-3.38,29.22,2.34,39.05,2.61,4.49,5.58,7.72,7.82,9.84Z"/>
      <path id="P2" class="cls-7" d="M94.46,60.06c2.53-11.07,6.95-18.04,10.64-22.42,8.83-10.46,19.41-13.11,20.06-21.98.02-.28.33-5.33-2.75-8.26-4.76-4.55-14.99-1.52-21.11,3.23-11.21,8.71-12.58,26.3-10.66,37.5.88,5.11,2.49,9.16,3.81,11.93Z"/>
      <path id="P3" class="cls-5" d="M94.46,60.06c1.18-5.79,3.86-14.47,10.39-22.78.82-1.04,4.35-5.46,10.3-9.88,4.42-3.28,16.64-12.36,23.06-8.21,2.8,1.81,4.28,6.01,3.38,9.07-1.02,3.48-5.01,5.07-6.36,5.64-6.64,2.81-18.84,10.32-40.77,26.17Z"/>
      <path id="P4" class="cls-8" d="M94.46,60.06s19.96-21,38.87-25.66c10.19-2.51,13.15-.3,14.27.96,1.99,2.26,2.27,6.29.77,9.1-1.6,2.97-4.9,4.04-6.41,4.5-30.73,9.42-47.49,11.11-47.49,11.11Z"/>
      <path id="P5" class="cls-9" d="M94.45,60.06c1.14.02,2.75.07,4.69.15,33.38,1.36,46.43,8.82,52.47,2.2,3.1-3.39,3.26-9.31,1.05-11.97-2.65-3.19-8.92-1.92-19.63.38-9.53,2.05-13.42,3.93-22.79,6.22-6.72,1.65-12.28,2.53-15.79,3.01Z"/>
    </g>
    <g id="Top_Der-2" data-name="Top Der">
      <path id="P1-2" data-name="P1" class="cls-9" d="M59.68,60.06c1.29-11.31-.67-19.43-2.8-24.87-5.1-12.99-14.59-19.27-12.21-27.84.08-.27,1.5-5.12,5.52-6.78,6.23-2.57,15.25,3.94,19.64,10.6,8.04,12.2,3.38,29.22-2.34,39.05-2.61,4.49-5.58,7.72-7.82,9.84Z"/>
      <path id="P2-2" data-name="P2" class="cls-7" d="M59.69,60.06c-2.53-11.07-6.95-18.04-10.64-22.42-8.83-10.46-19.41-13.11-20.06-21.98-.02-.28-.33-5.33,2.75-8.26,4.76-4.55,14.99-1.52,21.11,3.23,11.21,8.71,12.58,26.3,10.66,37.5-.88,5.11-2.49,9.16-3.81,11.93Z"/>
      <path id="P3-2" data-name="P3" class="cls-5" d="M59.68,60.06c-1.18-5.79-3.86-14.47-10.39-22.78-.82-1.04-4.35-5.46-10.3-9.88-4.42-3.28-16.64-12.36-23.06-8.21-2.8,1.81-4.28,6.01-3.38,9.07,1.02,3.48,5.01,5.07,6.36,5.64,6.64,2.81,18.84,10.32,40.77,26.17Z"/>
      <path id="P4-2" data-name="P4" class="cls-8" d="M59.68,60.06s-19.96-21-38.87-25.66c-10.19-2.51-13.15-.3-14.27.96-1.99,2.26-2.27,6.29-.77,9.1,1.6,2.97,4.9,4.04,6.41,4.5,30.73,9.42,47.49,11.11,47.49,11.11Z"/>
      <path id="P5-2" data-name="P5" class="cls-9" d="M59.7,60.06c-1.14.02-2.75.07-4.69.15-33.38,1.36-46.43,8.82-52.47,2.2-3.1-3.39-3.26-9.31-1.05-11.97,2.65-3.19,8.92-1.92,19.63.38,9.53,2.05,13.42,3.93,22.79,6.22,6.72,1.65,12.28,2.53,15.79,3.01Z"/>
    </g>
    <g id="Bot_Der" data-name="Bot Der">
      <path id="P1-3" data-name="P1" class="cls-10" d="M94.46,115.05c-1.29,11.31.67,19.43,2.8,24.87,5.1,12.99,14.59,19.27,12.21,27.84-.08.27-1.5,5.12-5.52,6.78-6.23,2.57-15.25-3.94-19.64-10.6-8.04-12.2-3.38-29.22,2.34-39.05,2.61-4.48,5.58-7.72,7.82-9.84Z"/>
      <path id="P3-3" data-name="P3" class="cls-3" d="M94.46,115.05c1.18,5.79,3.86,14.47,10.39,22.78.82,1.04,4.35,5.46,10.3,9.88,4.42,3.28,16.64,12.36,23.06,8.21,2.8-1.81,4.28-6.01,3.38-9.07-1.02-3.48-5.01-5.07-6.36-5.64-6.64-2.81-18.84-10.32-40.77-26.17Z"/>
      <path id="P2-3" data-name="P2" class="cls-4" d="M94.46,115.05c2.53,11.07,6.95,18.04,10.64,22.42,8.83,10.46,19.41,13.11,20.06,21.98.02.28.33,5.33-2.75,8.26-4.76,4.55-14.99,1.52-21.11-3.23-11.21-8.71-12.58-26.3-10.66-37.5.88-5.11,2.49-9.16,3.81-11.93Z"/>
      <path id="P4-3" data-name="P4" class="cls-1" d="M94.46,115.05s19.96,21,38.87,25.66c10.19,2.51,13.15.3,14.27-.96,1.99-2.26,2.27-6.29.77-9.1-1.6-2.97-4.9-4.04-6.41-4.5-30.73-9.42-47.49-11.11-47.49-11.11Z"/>
      <path id="P5-3" data-name="P5" class="cls-2" d="M94.45,115.05c1.14-.02,2.75-.07,4.69-.15,33.38-1.36,46.43-8.82,52.47-2.2,3.1,3.39,3.26,9.31,1.05,11.97-2.65,3.19-8.92,1.92-19.63-.38-9.53-2.05-13.42-3.93-22.79-6.22-6.72-1.65-12.28-2.53-15.79-3.01Z"/>
    </g>
    <g id="Bot_Der-2" data-name="Bot Der">
      <path id="P1-4" data-name="P1" class="cls-9" d="M59.69,115.1c1.29,11.31-.67,19.43-2.8,24.87-5.1,12.99-14.59,19.27-12.21,27.84.08.27,1.5,5.12,5.52,6.78,6.23,2.57,15.25-3.94,19.64-10.6,8.04-12.2,3.38-29.22-2.34-39.05-2.61-4.49-5.58-7.72-7.82-9.84Z"/>
      <path id="P2-4" data-name="P2" class="cls-4" d="M59.69,115.1c-2.53,11.07-6.95,18.04-10.64,22.42-8.83,10.46-19.41,13.11-20.06,21.98-.02.28-.33,5.33,2.75,8.26,4.76,4.55,14.99,1.52,21.11-3.23,11.21-8.71,12.58-26.3,10.66-37.5-.88-5.11-2.49-9.16-3.81-11.93Z"/>
      <path id="P3-4" data-name="P3" class="cls-3" d="M59.69,115.1c-1.18,5.79-3.86,14.47-10.39,22.78-.82,1.04-4.35,5.46-10.3,9.88-4.42,3.28-16.64,12.36-23.06,8.21-2.8-1.81-4.28-6.01-3.38-9.07,1.02-3.48,5.01-5.07,6.36-5.64,6.64-2.81,18.84-10.32,40.77-26.17Z"/>
      <path id="P4-4" data-name="P4" class="cls-1" d="M59.69,115.1s-19.96,21-38.87,25.66c-10.19,2.51-13.15.3-14.27-.96-1.99-2.26-2.27-6.29-.77-9.1,1.6-2.97,4.9-4.04,6.41-4.5,30.73-9.42,47.49-11.11,47.49-11.11Z"/>
      <path id="P5-4" data-name="P5" class="cls-2" d="M59.7,115.1c-1.14-.02-2.75-.07-4.69-.15-33.38-1.36-46.43-8.82-52.47-2.2-3.1,3.39-3.26,9.31-1.05,11.97,2.65,3.19,8.92,1.92,19.63-.38,9.53-2.05,13.42-3.93,22.79-6.22,6.72-1.65,12.28-2.53,15.79-3.01Z"/>
    </g>
  </g>
</svg>